HIERARCHY
ROOT mPelvis
{
	OFFSET 0.000000 1.067000 -0.000000
	CHANNELS 6 Xposition Yposition Zposition Xrotation Yrotation Zrotation
	JOINT mTorso
	{
		OFFSET 0.000000 0.084000 -0.000000
		CHANNELS 3 Xrotation Yrotation Zrotation
		JOINT mChest
		{
			OFFSET 0.000000 0.205000 -0.015000
			CHANNELS 3 Xrotation Yrotation Zrotation
			JOINT mNeck
			{
				OFFSET 0.000000 0.251000 -0.010000
				CHANNELS 3 Xrotation Yrotation Zrotation
				JOINT mHead
				{
					OFFSET 0.000000 0.076000 0.000000
					CHANNELS 3 Xrotation Yrotation Zrotation
					JOINT mSkull
					{
						OFFSET 0.000000 0.079000 0.000000
						CHANNELS 3 Xrotation Yrotation Zrotation
						End Site
						{
							OFFSET -0.000000 -0.100000 0.000000
						}
					}
					JOINT mEyeRight
					{
						OFFSET -0.036000 0.079000 0.098000
						CHANNELS 3 Xrotation Yrotation Zrotation
						End Site
						{
							OFFSET -0.000000 -0.100000 0.000000
						}
					}
					JOINT mEyeLeft
					{
						OFFSET 0.036000 0.079000 0.098000
						CHANNELS 3 Xrotation Yrotation Zrotation
						End Site
						{
							OFFSET -0.000000 -0.100000 0.000000
						}
					}
					JOINT HEAD
					{
						OFFSET 0.000000 0.070000 0.020000
						CHANNELS 3 Xrotation Yrotation Zrotation
						End Site
						{
							OFFSET -0.000000 -0.100000 0.000000
						}
					}
				}
				JOINT NECK
				{
					OFFSET 0.000000 0.020000 0.000000
					CHANNELS 3 Xrotation Yrotation Zrotation
					End Site
					{
						OFFSET -0.000000 -0.100000 0.000000
					}
				}
			}
			JOINT mCollarLeft
			{
				OFFSET 0.085000 0.165000 -0.021000
				CHANNELS 3 Xrotation Yrotation Zrotation
				JOINT mShoulderLeft
				{
					OFFSET 0.079000 0.000000 -0.000000
					CHANNELS 3 Xrotation Yrotation Zrotation
					JOINT mElbowLeft
					{
						OFFSET 0.248000 0.000000 -0.000000
						CHANNELS 3 Xrotation Yrotation Zrotation
						JOINT mWristLeft
						{
							OFFSET 0.205000 0.000000 -0.000000
							CHANNELS 3 Xrotation Yrotation Zrotation
							JOINT L_HAND
							{
								OFFSET 0.050000 0.000000 0.010000
								CHANNELS 3 Xrotation Yrotation Zrotation
								End Site
								{
									OFFSET 0.000000 -0.100000 0.000000
								}
							}
						}
						JOINT L_LOWER_ARM
						{
							OFFSET 0.100000 0.000000 -0.000000
							CHANNELS 3 Xrotation Yrotation Zrotation
							End Site
							{
								OFFSET 0.000000 -0.100000 0.000000
							}
						}
					}
					JOINT L_UPPER_ARM
					{
						OFFSET 0.120000 0.010000 -0.000000
						CHANNELS 3 Xrotation Yrotation Zrotation
						End Site
						{
							OFFSET 0.000000 -0.100000 0.000000
						}
					}
				}
				JOINT L_CLAVICLE
				{
					OFFSET 0.000000 0.020000 0.020000
					CHANNELS 3 Xrotation Yrotation Zrotation
					End Site
					{
						OFFSET -0.000000 -0.100000 0.000000
					}
				}
			}
			JOINT mCollarRight
			{
				OFFSET -0.085000 0.165000 -0.021000
				CHANNELS 3 Xrotation Yrotation Zrotation
				JOINT mShoulderRight
				{
					OFFSET -0.079000 0.000000 0.000000
					CHANNELS 3 Xrotation Yrotation Zrotation
					JOINT mElbowRight
					{
						OFFSET -0.248000 0.000000 0.000000
						CHANNELS 3 Xrotation Yrotation Zrotation
						JOINT mWristRight
						{
							OFFSET -0.205000 0.000000 0.000000
							CHANNELS 3 Xrotation Yrotation Zrotation
							JOINT R_HAND
							{
								OFFSET -0.050000 0.000000 0.010000
								CHANNELS 3 Xrotation Yrotation Zrotation
								End Site
								{
									OFFSET 0.000000 -0.100000 0.000000
								}
							}
						}
						JOINT R_LOWER_ARM
						{
							OFFSET -0.100000 0.000000 0.000000
							CHANNELS 3 Xrotation Yrotation Zrotation
							End Site
							{
								OFFSET 0.000000 -0.100000 0.000000
							}
						}
					}
					JOINT R_UPPER_ARM
					{
						OFFSET -0.120000 0.010000 0.000000
						CHANNELS 3 Xrotation Yrotation Zrotation
						End Site
						{
							OFFSET 0.000000 -0.100000 0.000000
						}
					}
				}
				JOINT R_CLAVICLE
				{
					OFFSET 0.000000 0.020000 0.020000
					CHANNELS 3 Xrotation Yrotation Zrotation
					End Site
					{
						OFFSET -0.000000 -0.100000 0.000000
					}
				}
			}
			JOINT CHEST
			{
				OFFSET 0.000000 0.070000 0.028000
				CHANNELS 3 Xrotation Yrotation Zrotation
				End Site
				{
					OFFSET -0.000000 -0.100000 0.000000
				}
			}
			JOINT LEFT_PEC
			{
				OFFSET 0.082000 0.042000 0.119000
				CHANNELS 3 Xrotation Yrotation Zrotation
				End Site
				{
					OFFSET 0.000000 -0.100000 0.000000
				}
			}
			JOINT RIGHT_PEC
			{
				OFFSET -0.082000 0.042000 0.119000
				CHANNELS 3 Xrotation Yrotation Zrotation
				End Site
				{
					OFFSET 0.000000 -0.100000 0.000000
				}
			}
			JOINT UPPER_BACK
			{
				OFFSET 0.000000 0.017253 0.000000
				CHANNELS 3 Xrotation Yrotation Zrotation
				End Site
				{
					OFFSET -0.000000 -0.100000 0.000000
				}
			}
		}
		JOINT BELLY
		{
			OFFSET 0.000000 0.040000 0.028000
			CHANNELS 3 Xrotation Yrotation Zrotation
			End Site
			{
				OFFSET -0.000000 -0.100000 0.000000
			}
		}
		JOINT LOWER_BACK
		{
			OFFSET 0.000000 0.022848 -0.000000
			CHANNELS 3 Xrotation Yrotation Zrotation
			End Site
			{
				OFFSET -0.000000 -0.100000 0.000000
			}
		}
	}
	JOINT mHipRight
	{
		OFFSET -0.129000 -0.041000 0.034000
		CHANNELS 3 Xrotation Yrotation Zrotation
		JOINT mKneeRight
		{
			OFFSET 0.049000 -0.491000 -0.001000
			CHANNELS 3 Xrotation Yrotation Zrotation
			JOINT mAnkleRight
			{
				OFFSET -0.000000 -0.468000 -0.029000
				CHANNELS 3 Xrotation Yrotation Zrotation
				JOINT mFootRight
				{
					OFFSET 0.000000 -0.061000 0.112000
					CHANNELS 3 Xrotation Yrotation Zrotation
					JOINT mToeRight
					{
						OFFSET 0.000000 0.000000 0.109000
						CHANNELS 3 Xrotation Yrotation Zrotation
						End Site
						{
							OFFSET -0.000000 -0.100000 0.000000
						}
					}
				}
				JOINT R_FOOT
				{
					OFFSET 0.000000 -0.041000 0.077000
					CHANNELS 3 Xrotation Yrotation Zrotation
					End Site
					{
						OFFSET 0.000000 -0.100000 0.000000
					}
				}
			}
			JOINT R_LOWER_LEG
			{
				OFFSET -0.000000 -0.200000 -0.020000
				CHANNELS 3 Xrotation Yrotation Zrotation
				End Site
				{
					OFFSET -0.000000 -0.100000 0.000000
				}
			}
		}
		JOINT R_UPPER_LEG
		{
			OFFSET 0.050000 -0.220000 -0.020000
			CHANNELS 3 Xrotation Yrotation Zrotation
			End Site
			{
				OFFSET -0.000000 -0.100000 0.000000
			}
		}
	}
	JOINT mHipLeft
	{
		OFFSET 0.127000 -0.041000 0.034000
		CHANNELS 3 Xrotation Yrotation Zrotation
		JOINT mKneeLeft
		{
			OFFSET -0.046000 -0.491000 -0.001000
			CHANNELS 3 Xrotation Yrotation Zrotation
			JOINT mAnkleLeft
			{
				OFFSET 0.001000 -0.468000 -0.029000
				CHANNELS 3 Xrotation Yrotation Zrotation
				JOINT mFootLeft
				{
					OFFSET 0.000000 -0.061000 0.112000
					CHANNELS 3 Xrotation Yrotation Zrotation
					JOINT mToeLeft
					{
						OFFSET 0.000000 0.000000 0.109000
						CHANNELS 3 Xrotation Yrotation Zrotation
						End Site
						{
							OFFSET -0.000000 -0.100000 0.000000
						}
					}
				}
				JOINT L_FOOT
				{
					OFFSET 0.000000 -0.041000 0.077000
					CHANNELS 3 Xrotation Yrotation Zrotation
					End Site
					{
						OFFSET 0.000000 -0.100000 0.000000
					}
				}
			}
			JOINT L_LOWER_LEG
			{
				OFFSET -0.000000 -0.200000 -0.020000
				CHANNELS 3 Xrotation Yrotation Zrotation
				End Site
				{
					OFFSET -0.000000 -0.100000 0.000000
				}
			}
		}
		JOINT L_UPPER_LEG
		{
			OFFSET -0.050000 -0.220000 -0.020000
			CHANNELS 3 Xrotation Yrotation Zrotation
			End Site
			{
				OFFSET -0.000000 -0.100000 0.000000
			}
		}
	}
	JOINT PELVIS
	{
		OFFSET -0.000000 -0.020000 -0.010000
		CHANNELS 3 Xrotation Yrotation Zrotation
		End Site
		{
			OFFSET -0.000000 -0.100000 0.000000
		}
	}
	JOINT BUTT
	{
		OFFSET -0.000000 -0.100000 -0.060000
		CHANNELS 3 Xrotation Yrotation Zrotation
		End Site
		{
			OFFSET -0.000000 -0.100000 0.000000
		}
	}
}
MOTION
Frames: 4
Frame Time: 0.022222
0.000000 -13.463561 0.000001 1.544035 -0.000000 -0.000000 -1.788479 0.007512 0.130643 -0.526150 0.000739 0.020949 9.583189 -0.000001 -0.000002 18.269694 -0.000003 -0.000003 0.000002 0.000022 -179.999991 -0.000000 0.000000 0.000000 -0.000000 0.000000 0.000000 -0.000000 0.000000 0.000000 -0.000000 0.000000 0.000000 0.363740 5.042037 -8.247252 -6.456221 -1.007510 -76.078103 0.000000 -12.839514 -0.000001 -39.593305 3.999582 -7.195857 -0.000005 -0.000004 -0.000002 -0.000000 -0.000000 -0.000001 -0.000000 -0.000000 0.000000 -0.000000 0.000000 0.000001 -2.916238 -4.157033 10.189342 -6.327658 9.649610 74.934436 0.000000 12.839515 -0.000001 -39.475696 -4.167781 7.685963 0.000003 -0.000002 -0.000001 0.000001 0.000001 -0.000000 0.000000 -0.000001 -0.000000 0.000001 -0.000000 0.000000 -0.000000 -0.000000 -0.000000 -0.000000 -0.000000 -0.000000 -0.000000 -0.000000 -0.000000 -0.000000 -0.000000 -0.000000 0.000000 -0.000000 0.000000 0.000000 -0.000000 0.000000 -31.055422 -3.504657 -1.280602 66.315345 -1.920247 -3.378083 27.826819 -4.348629 -1.991770 0.000013 -0.000002 0.000005 -0.000002 -0.000000 -0.000000 0.000012 -0.000003 0.000002 -0.000000 0.000000 -0.000000 -0.000003 0.000002 0.000137 -30.928237 3.229012 1.281570 66.043749 -1.789359 -3.435773 28.345609 1.965489 -2.404934 0.000001 0.000006 -0.000009 0.000002 -0.000000 0.000001 0.000002 0.000005 -0.000010 0.000004 0.000001 0.000000 0.000000 0.000002 -0.000100 -0.000000 -0.000000 -0.000000 -0.000000 -0.000000 -0.000000 
0.000000 -14.548135 0.000001 1.688935 -0.000000 -0.000000 -1.949696 0.007988 0.142429 -0.602802 0.000830 0.024002 9.572633 -0.000002 -0.000002 18.648018 -0.000003 -0.000003 0.000001 0.000022 -179.999991 -0.000001 -0.000000 -0.000000 -0.000001 -0.000000 -0.000000 -0.000001 -0.000000 0.000000 -0.000001 -0.000000 0.000000 0.368222 4.749965 -8.860532 -6.890560 -1.120693 -75.315171 -0.000001 -13.803836 -0.000000 -42.821243 4.389076 -7.284865 -0.000001 -0.000001 -0.000000 0.000000 0.000001 -0.000001 -0.000000 0.000000 0.000001 -0.000000 0.000000 0.000000 -2.866281 -3.942908 10.711375 -6.721419 9.268567 74.261969 0.000001 13.803838 -0.000001 -42.709388 -4.560741 7.743222 -0.000001 -0.000000 0.000002 0.000001 0.000000 0.000000 0.000001 -0.000001 -0.000000 0.000000 0.000000 0.000000 -0.000000 -0.000000 -0.000000 -0.000000 -0.000000 -0.000000 -0.000000 -0.000000 -0.000000 -0.000000 -0.000000 -0.000000 0.000001 -0.000001 0.000000 0.000001 -0.000001 0.000000 -33.490835 -3.780307 -1.496894 72.352057 -2.261573 -3.531683 30.016386 -4.730814 -2.087652 0.000015 -0.000004 0.000010 0.000002 -0.000001 -0.000001 0.000013 -0.000004 0.000011 -0.000006 0.000001 0.000000 -0.000002 0.000002 0.000136 -33.359364 3.480779 1.487022 72.043367 -2.122508 -3.601770 30.603967 2.155230 -2.606733 -0.000002 0.000003 -0.000002 -0.000001 -0.000000 0.000001 0.000002 0.000004 -0.000004 0.000001 0.000001 0.000001 0.000001 0.000002 -0.000100 -0.000000 -0.000000 -0.000000 -0.000000 -0.000000 -0.000000 
0.000000 -15.636828 0.000001 1.839787 -0.000000 -0.000000 -2.116578 0.008447 0.154632 -0.686558 0.000926 0.027337 9.562036 -0.000001 -0.000002 19.018330 -0.000003 -0.000003 0.000003 0.000022 -179.999991 0.000001 -0.000000 -0.000000 0.000001 -0.000000 -0.000000 0.000001 -0.000000 -0.000000 0.000000 0.000000 0.000000 0.369569 4.456813 -9.475790 -7.325053 -1.240110 -74.550094 -0.000000 -14.771964 -0.000001 -46.067894 4.785105 -7.352078 0.000000 -0.000001 0.000001 -0.000000 0.000002 -0.000000 -0.000000 0.000000 0.000000 0.000000 0.000000 -0.000000 -2.813564 -3.727050 11.231688 -7.120966 8.890821 73.584906 0.000000 14.771969 -0.000001 -45.962167 -4.958455 7.778310 -0.000001 0.000000 -0.000002 0.000000 0.000002 -0.000000 0.000000 -0.000001 -0.000000 0.000000 0.000001 -0.000001 0.000000 -0.000000 0.000000 0.000000 -0.000000 0.000000 0.000000 -0.000000 0.000000 0.000000 -0.000000 0.000000 0.000000 0.000000 -0.000000 0.000000 0.000000 -0.000000 -35.947398 -4.055433 -1.733745 78.446710 -2.620580 -3.649467 32.225355 -5.121135 -2.175253 0.000020 -0.000007 0.000011 0.000001 -0.000001 -0.000000 0.000020 -0.000007 0.000012 -0.000002 0.000001 -0.000000 0.000006 0.000002 0.000136 -35.811932 3.731752 1.711085 78.099948 -2.474519 -3.733095 32.886606 2.354494 -2.813715 0.000005 0.000005 -0.000008 0.000001 -0.000000 0.000001 0.000006 0.000003 -0.000007 -0.000001 -0.000000 -0.000000 0.000002 0.000002 -0.000101 -0.000000 0.000000 -0.000000 -0.000000 0.000000 -0.000000 
0.000000 -16.725523 0.000001 1.996522 -0.000000 -0.000000 -2.288962 0.008883 0.167237 -0.777729 0.001023 0.030968 9.551437 -0.000001 -0.000002 19.379992 -0.000003 -0.000003 0.000002 0.000022 -179.999991 0.000000 0.000000 0.000000 0.000000 0.000000 0.000000 0.000000 0.000000 0.000000 -0.000000 0.000000 0.000000 0.367761 4.163746 -10.090695 -7.757930 -1.365307 -73.785926 0.000000 -15.740084 -0.000002 -49.316049 5.184289 -7.396700 -0.000002 0.000000 0.000001 -0.000000 0.000004 -0.000000 0.000001 0.000000 0.000000 0.000000 -0.000000 -0.000000 -2.757850 -3.510205 11.748583 -7.524719 8.517934 72.905938 0.000000 15.740096 -0.000001 -49.216718 -5.357514 7.790689 -0.000003 0.000000 -0.000001 0.000000 0.000000 0.000000 0.000000 -0.000001 -0.000000 0.000000 0.000000 0.000001 -0.000000 0.000000 -0.000000 -0.000000 0.000000 0.000000 -0.000000 0.000000 -0.000000 -0.000000 0.000000 -0.000000 0.000001 -0.000001 0.000000 0.000001 -0.000001 0.000000 -38.415316 -4.328398 -1.991100 84.542504 -2.990053 -3.728453 34.444644 -5.517912 -2.254231 0.000015 -0.000005 0.000011 -0.000000 0.000000 0.000000 0.000014 -0.000005 0.000009 0.000001 0.000002 -0.000000 -0.000001 0.000002 0.000137 -38.276093 3.980434 1.953635 84.157472 -2.838409 -3.826538 35.184377 2.563722 -3.025464 0.000001 0.000007 -0.000010 -0.000000 0.000000 -0.000001 0.000001 0.000005 -0.000011 0.000003 0.000001 0.000001 -0.000001 0.000002 -0.000099 -0.000000 -0.000000 -0.000000 -0.000000 -0.000000 -0.000000 
